# xmcd
#
# Track frame offsets: 
#        150
#        17006
#        31060
#        50242
#        68288
#        83554
#        101041
#        119601
#        138857
#        160200
#
# Disc length: 2420 seconds
#
# Revision: 0
# Processed by: cddbd v1.5.2PL0 Copyright (c) Steve Scherf et al.
# Submitted via: ExactAudioCopyFreeDBPlugin 1.0
#
DISCID=7809720a
DTITLE=AI - INDEPENDENT
DYEAR=2012
DGENRE=R&B
TTITLE0=DANCE TOGETHER
TTITLE1=INDEPENDENT WOMAN
TTITLE2=ハピネス
TTITLE3=アンバランス
TTITLE4=FUTURISTIC LOVER
TTITLE5=w - u
TTITLE6=ユメノムコウ
TTITLE7=One Love
TTITLE8=ウツクシキモノ
TTITLE9=Letter In The Sky
EXTD=
EXTT0=
EXTT1=
EXTT2=
EXTT3=
EXTT4=
EXTT5=
EXTT6=
EXTT7=
EXTT8=
EXTT9=
PLAYORDER=
